<?xml version="1.0" encoding="UTF-8"?>
<svg width="959.99988" height="475.99985" xmlns="http://www.w3.org/2000/svg" xmlns:svg="http://www.w3.org/2000/svg" xmlns:xlink="http://www.w3.org/1999/xlink">
 <title>Maroon Car - Top View</title>
 <defs>
  <linearGradient id="linearGradient3759">
   <stop id="stop3761" offset="0" stop-color="#1a1a1a"/>
   <stop id="stop3763" offset="1" stop-opacity="0" stop-color="#f30000"/>
  </linearGradient>
  <linearGradient x1="1.116414" y1="0.499998" x2="0.500885" y2="0.325213" id="linearGradient4149" xlink:href="#linearGradient3759"/>
  <linearGradient x1="1.545716" y1="0.494626" x2="-0.255046" y2="0.402935" id="linearGradient4153" xlink:href="#linearGradient3759"/>
  <linearGradient x1="1.464969" y1="0.50498" x2="-0.237815" y2="0.37682" id="linearGradient4155" xlink:href="#linearGradient3759"/>
  <linearGradient x1="1.116414" y1="0.499997" x2="0.500885" y2="0.674782" id="linearGradient4185" xlink:href="#linearGradient3759"/>
  <linearGradient x1="1.677574" y1="0.704643" x2="1.365073" y2="0.703166" id="linearGradient4187" xlink:href="#linearGradient3759"/>
  <linearGradient x1="1.464969" y1="0.495016" x2="-0.237815" y2="0.623177" id="linearGradient4189" xlink:href="#linearGradient3759"/>
  <linearGradient x1="1.152176" y1="0.444778" x2="0.991189" y2="0.564393" id="linearGradient4191" xlink:href="#linearGradient3759"/>
  <linearGradient x1="0.954739" y1="0.280449" x2="0.41997" y2="1.148213" id="linearGradient4193" xlink:href="#linearGradient3759"/>
  <linearGradient x1="1.758328" y1="0.714996" x2="-0.436908" y2="0.686302" id="linearGradient4195" xlink:href="#linearGradient3759"/>
  <linearGradient x1="1.545716" y1="0.505368" x2="-0.255046" y2="0.597059" id="linearGradient4197" xlink:href="#linearGradient3759"/>
  <linearGradient x1="1.000091" y1="0.353155" x2="0.00008" y2="0.66898" id="linearGradient4199" xlink:href="#linearGradient3759"/>
  <linearGradient x1="1.000106" y1="0.349916" x2="0.000096" y2="0.486348" id="linearGradient4201" xlink:href="#linearGradient3759"/>
  <linearGradient x1="1.677574" y1="0.295353" x2="1.365073" y2="0.29683" id="linearGradient4203" xlink:href="#linearGradient3759"/>
  <linearGradient x1="1.152176" y1="0.555219" x2="0.991189" y2="0.435603" id="linearGradient4205" xlink:href="#linearGradient3759"/>
  <linearGradient x1="0.954739" y1="0.719548" x2="0.41997" y2="-0.148216" id="linearGradient4207" xlink:href="#linearGradient3759"/>
  <linearGradient x1="1.758328" y1="0.285" x2="-0.436908" y2="0.313694" id="linearGradient4209" xlink:href="#linearGradient3759"/>
  <linearGradient x1="1.000091" y1="0.646835" x2="0.00008" y2="0.331009" id="linearGradient4211" xlink:href="#linearGradient3759"/>
  <linearGradient x1="1.000106" y1="0.650074" x2="0.000096" y2="0.513642" id="linearGradient4213" xlink:href="#linearGradient3759"/>
 </defs>
 <g>
  <title>Layer 1</title>
  <path d="m557.58777,7.00009c-1.50861,0.00901 -4.72107,0.3049 -6.46869,0.9375l-3.49994,1.5l8.65613,35.93753l-124.81116,0.28125c-2.43631,0.00495 -4.88763,-0.01403 -7.34363,-0.03125c-4.91204,-0.0343 -9.86496,-0.10455 -14.84359,-0.21875c-7.29264,-0.16723 -14.66886,-0.41284 -22.06229,-0.71875c-0.39587,-0.01635 -0.79132,-0.04565 -1.18744,-0.0625c-14.93243,-0.63012 -30.00723,-1.4917 -45.03076,-2.4375c-20.32623,-1.28271 -40.52008,-2.70733 -60.12439,-3.875c-14.52802,-0.86529 -28.7321,-1.57953 -42.37453,-2c-9.3692,-0.28869 -18.46383,-0.45654 -27.24972,-0.40625c-4.3158,0.02472 -8.56783,0.09333 -12.71862,0.21875c-4.15075,0.12549 -8.38012,0.35535 -12.65609,0.65625c-2.138,0.15052 -4.27776,0.31025 -6.43744,0.5c-6.4689,0.56842 -13.04498,1.32141 -19.59354,2.1875c-0.0101,0.00104 -0.0211,-0.00097 -0.0312,0c-4.37251,0.57862 -8.71848,1.22553 -13.06236,1.90625c-4.34388,0.68073 -8.67339,1.39783 -12.93735,2.15625c-4.25372,0.75666 -8.47041,1.56537 -12.59361,2.375c-0.01001,0.00202 -0.02121,-0.00195 -0.03121,0c-2.06637,0.40589 -4.06973,0.8042 -6.09369,1.21875c-6.0614,1.24164 -11.93371,2.51606 -17.49981,3.78125c-0.01009,0.00202 -0.02109,-0.00195 -0.03119,0c-3.71646,0.84491 -7.28725,1.67517 -10.71863,2.5c-6.86383,1.64844 -13.11533,3.23462 -18.53105,4.65625c-8.1236,2.13251 -14.38243,3.92725 -18.09355,5c-2.47364,0.71582 -3.81247,1.125 -3.81247,1.125l-13.68734,3.75c-0.90241,0.24878 -1.77813,0.69294 -2.62498,1.3125c-0.28772,0.21051 -0.56234,0.43598 -0.84375,0.6875c-1.09958,0.97962 -2.15099,2.27069 -3.1562,3.84375c-0.00461,0.00702 0.0046,0.02436 0,0.03125c-0.50038,0.78473 -1.02247,1.64045 -1.49999,2.5625c-0.0042,0.008 0.0042,0.0232 0,0.03119c-0.47758,0.92371 -0.95115,1.91419 -1.40623,2.96875c-0.0037,0.00897 0.0037,0.02216 0,0.03119c-3.66703,8.50946 -6.62001,21.13135 -8.93741,36.21875c-0.0015,0.01001 0.0015,0.02118 0,0.03119c-0.03595,0.23419 -0.0581,0.4834 -0.09375,0.71875c-0.50462,3.33148 -0.99204,6.79822 -1.43749,10.34375c-0.03048,0.24268 -0.06355,0.47522 -0.09375,0.71875c-0.50155,4.04315 -0.94671,8.20245 -1.37497,12.46875c-0.001,0.01001 0.00099,0.02112 0,0.03119c-0.21356,2.12842 -0.42913,4.2948 -0.62501,6.46875c-0.00092,0.01001 0.00093,0.02093 0,0.03119c-0.1958,2.17437 -0.38397,4.34924 -0.56249,6.5625c-0.00083,0.01001 0.00083,0.02093 0,0.03125c-0.35775,4.43762 -0.67817,8.9458 -0.96874,13.5c-0.00065,0.01007 0.00066,0.02087 0,0.03119c-0.87259,13.68408 -1.45958,27.78869 -1.78123,41.5625c-0.00024,0.01037 0.00024,0.02069 0,0.03119c-0.21443,9.18939 -0.3126,18.21331 -0.3126,26.90655c0,0.96765 0.02755,1.96289 0.03125,2.9375c-0.0037,0.97461 -0.03125,1.96985 -0.03125,2.9375c0,8.69318 0.09816,17.71716 0.3125,26.90625c0.00024,0.0105 -0.00024,0.02081 0,0.03119c0.32165,13.7738 0.90864,27.87842 1.78123,41.5625c0.00066,0.01031 -0.00065,0.02112 0,0.03119c0.29057,4.5542 0.61099,9.06238 0.96874,13.5c0.00083,0.01031 -0.00083,0.02112 0,0.03119c0.17852,2.21332 0.36669,4.38818 0.56249,6.5625c0.00093,0.01031 -0.00092,0.02112 0,0.03125c0.19588,2.17395 0.41145,4.34033 0.62501,6.46875c0.00099,0.01019 -0.00101,0.02105 0,0.03119c0.42825,4.26629 0.87341,8.42559 1.37497,12.46875c0.0302,0.24353 0.06327,0.47607 0.09375,0.71875c0.44545,3.54553 0.93287,7.01226 1.43749,10.34375c0.03565,0.23529 0.0578,0.48455 0.09375,0.71875c0.0015,0.01001 -0.0015,0.02148 0,0.03119c2.31739,15.0874 5.27037,27.70929 8.93741,36.21875c0.0037,0.00897 -0.0037,0.02258 0,0.03118c0.45508,1.05457 0.92865,2.04505 1.40623,2.96875c0.0042,0.008 -0.0042,0.02314 0,0.03119c0.47752,0.92206 0.99961,1.77777 1.49999,2.5625c0.0046,0.00702 -0.00461,0.02423 0,0.03125c1.0052,1.57306 2.05662,2.86414 3.1562,3.84375c0.28141,0.25153 0.55603,0.47699 0.84375,0.6875c0.84685,0.61957 1.72257,1.06372 2.62497,1.3125l13.68735,3.75c0,0 1.33883,0.40918 3.81247,1.125c3.71112,1.07276 9.96996,2.8675 18.09355,5c5.41573,1.42163 11.66723,3.00782 18.53104,4.65625c3.4314,0.82483 7.00218,1.65509 10.71863,2.5c0.01021,0.00196 0.0211,-0.00201 0.0312,0c5.56609,1.2652 11.43842,2.53962 17.4998,3.78125c2.02396,0.41455 4.02733,0.81287 6.09371,1.21875c0.01008,0.00196 0.02119,-0.00201 0.03119,0c4.1232,0.80963 8.33989,1.61835 12.59361,2.375c4.26396,0.75843 8.59348,1.47547 12.93736,2.15625c4.34388,0.68073 8.68984,1.32764 13.06237,1.90625c0.01019,0.00098 0.0211,-0.00103 0.03119,0c6.54856,0.86609 13.12463,1.61908 19.59355,2.1875c2.15967,0.18976 4.29942,0.34949 6.43742,0.5c4.27599,0.30091 8.50534,0.53077 12.65611,0.65625c4.15078,0.12543 8.40282,0.19403 12.71862,0.21875c8.78589,0.0503 17.88052,-0.11755 27.24969,-0.40625c13.64246,-0.42047 27.84651,-1.1347 42.37453,-2c19.60437,-1.16766 39.79816,-2.59228 60.12439,-3.875c15.02356,-0.9458 30.09839,-1.80737 45.03076,-2.4375c0.39609,-0.01684 0.79157,-0.04614 1.18747,-0.0625c7.39346,-0.3059 14.76968,-0.55151 22.06229,-0.71875c4.97863,-0.11425 9.93158,-0.18451 14.84356,-0.21875c2.45606,-0.01721 4.90735,-0.0365 7.34369,-0.03125l124.8111,0.28125l-8.65613,35.9375l3.49994,1.5c1.74762,0.63263 4.96008,0.92853 6.46869,0.9375c0.84863,0.00501 1.75507,-0.07409 2.6875,-0.25c0.31067,-0.05847 0.62353,-0.14105 0.9375,-0.21875c0.30456,-0.07556 0.63257,-0.15667 0.9375,-0.25c0.62842,-0.19305 1.26349,-0.42151 1.87494,-0.6875c1.82153,-0.79351 3.53424,-1.93139 4.78119,-3.3125c0.01001,-0.01068 0.02173,-0.02057 0.03125,-0.03119c0.62475,-0.69787 1.11224,-1.45123 1.46869,-2.28125l12.15612,-31.3125l109.93634,0.25c0.74689,0.37391 1.47602,0.74512 2.21869,1.09375c2.97919,1.39954 5.91095,2.59705 8.84369,3.625c1.46228,0.51258 2.91773,0.97553 4.37494,1.40625c5.09998,1.50751 10.18793,2.55152 15.34357,3.25c2.94623,0.39936 5.9259,0.69391 8.93744,0.90625c1.50567,0.10614 3.03393,0.18012 4.56244,0.25c3.057,0.13996 6.13855,0.21283 9.31237,0.25c6.34748,0.0741 12.97937,0 19.99982,0c10.41004,0 20.32221,-0.53118 29.78089,-1.5625c3.7835,-0.41247 7.49108,-0.89746 11.12487,-1.46875c7.26764,-1.14251 14.22834,-2.61889 20.90607,-4.375c1.66937,-0.43902 3.33569,-0.89874 4.96869,-1.375c4.89899,-1.42877 9.61279,-3.02539 14.18732,-4.78125c1.5249,-0.58526 3.04205,-1.16052 4.53125,-1.78125c2.97827,-1.24145 5.88195,-2.55694 8.71862,-3.9375c1.41834,-0.69024 2.83551,-1.40057 4.21869,-2.125c2.76642,-1.44873 5.4668,-2.97998 8.09369,-4.5625c1.31348,-0.79126 2.59607,-1.61346 3.87494,-2.4375c6.39429,-4.12011 12.36304,-8.62548 17.90607,-13.53125c4.42865,-3.91943 8.60156,-8.07977 12.49988,-12.46875c0.005,-0.00598 -0.00501,-0.02539 0,-0.03118c0.97039,-1.0929 1.93695,-2.19159 2.87494,-3.3125c0.005,-0.00599 -0.00501,-0.02509 0,-0.03119c0.93774,-1.12091 1.87573,-2.25775 2.78125,-3.40625c0.005,-0.00598 -0.00501,-0.02491 0,-0.03119c2.72558,-3.45819 5.31323,-7.01892 7.74987,-10.71875c0.00501,-0.00702 -0.00494,-0.02405 0,-0.03125c0.80884,-1.22852 1.62891,-2.46436 2.40625,-3.71875c0.00501,-0.008 -0.005,-0.02375 0,-0.03119c2.34052,-3.77808 4.56678,-7.65247 6.62494,-11.65625c0.00397,-0.008 -0.00403,-0.02307 0,-0.03119c0.68299,-1.32916 1.34772,-2.6781 1.99994,-4.03125c0.00403,-0.008 -0.00397,-0.02289 0,-0.03119c0.65204,-1.35327 1.31604,-2.71692 1.9375,-4.09375c0.00403,-0.00903 -0.00397,-0.0227 0,-0.03119c1.2464,-2.76251 2.43805,-5.55169 3.56244,-8.40625c0.00403,-0.00903 -0.00397,-0.0224 0,-0.03119c0.56024,-1.42291 1.09479,-2.86743 1.625,-4.3125c0.00299,-0.00903 -0.00299,-0.02221 0,-0.03125c0.53003,-1.44519 1.06232,-2.90796 1.5625,-4.375c0.5,-1.4671 0.99841,-2.94903 1.46875,-4.4375c0.00299,-0.00897 -0.00299,-0.02197 0,-0.03119c0.47009,-1.48858 0.93433,-2.99047 1.37494,-4.5c0.00299,-0.01001 -0.00299,-0.02166 0,-0.03118c0.44049,-1.50959 0.87012,-3.03241 1.28125,-4.5625c0.00299,-0.01001 -0.00299,-0.02173 0,-0.03119c1.23816,-4.61017 2.36835,-9.30603 3.34369,-14.09375l0,-0.03119c0.32361,-1.58942 0.6112,-3.20441 0.90631,-4.8125l0,-0.03125c2.07471,-11.31836 3.4621,-23.06201 4.15619,-35.21875c0.00049,-0.01026 -0.00061,-0.02106 0,-0.03119c0.09802,-1.72791 0.17871,-3.47565 0.25,-5.21875c0.00043,-0.01026 -0.00037,-0.02106 0,-0.03119c0.14264,-3.49695 0.2467,-7.0072 0.28119,-10.5625c0,-0.01032 -0.00006,-0.02112 0,-0.03119c0.01703,-1.78296 0.01001,-3.57806 0,-5.375c0,-0.6358 -0.02198,-1.27142 -0.03101,-1.90625c0.01001,-0.63483 0.03101,-1.27045 0.03101,-1.90625c0.01001,-1.797 0.01703,-3.59204 0,-5.375c-0.00006,-0.01019 0,-0.02093 0,-0.03119c-0.034,-3.55536 -0.13855,-7.06555 -0.28119,-10.5625c-0.00037,-0.01019 0.00043,-0.02093 0,-0.03119c-0.07099,-1.7431 -0.15198,-3.49084 -0.25,-5.21875c-0.00061,-0.01025 0.00049,-0.02093 0,-0.03125c-0.69409,-12.15667 -2.08148,-23.90039 -4.15619,-35.21875l0,-0.03119c-0.29511,-1.60809 -0.5827,-3.22308 -0.90631,-4.8125l0,-0.03119c-0.97534,-4.78772 -2.10553,-9.48364 -3.34369,-14.09375c-0.00299,-0.01001 0.00299,-0.0213 0,-0.03118c-0.41113,-1.53009 -0.84076,-3.05292 -1.28125,-4.5625c-0.00299,-0.01001 0.00299,-0.02131 0,-0.03119c-0.44061,-1.50952 -0.90485,-3.01142 -1.37494,-4.5c-0.00299,-0.00904 0.00299,-0.02234 0,-0.03125c-0.47034,-1.48841 -0.96875,-2.97034 -1.46875,-4.4375c-0.50018,-1.46698 -1.03247,-2.92975 -1.5625,-4.375c-0.00299,-0.00898 0.00299,-0.02228 0,-0.03119c-0.53021,-1.44507 -1.06476,-2.88965 -1.625,-4.3125c-0.00397,-0.00897 0.00403,-0.02228 0,-0.03119c-1.12439,-2.85456 -2.31604,-5.64374 -3.56244,-8.40625c-0.00397,-0.008 0.00403,-0.02228 0,-0.03119c-0.62146,-1.37683 -1.28546,-2.74048 -1.9375,-4.09375c-0.00397,-0.008 0.00403,-0.02332 0,-0.03119c-0.65222,-1.35315 -1.31695,-2.70209 -1.99994,-4.03125c-0.00403,-0.008 0.00397,-0.02332 0,-0.03119c-2.05816,-4.00378 -4.28442,-7.87817 -6.62494,-11.65625c-0.005,-0.00702 0.00501,-0.02331 0,-0.03125c-0.77734,-1.25433 -1.59741,-2.49017 -2.40625,-3.71875c-0.00494,-0.00696 0.00501,-0.02417 0,-0.03119c-2.43664,-3.69989 -5.02429,-7.26056 -7.74987,-10.71875c-0.00501,-0.00598 0.005,-0.02527 0,-0.03119c-0.90552,-1.1485 -1.84351,-2.28534 -2.78125,-3.40625c-0.00501,-0.00598 0.005,-0.02527 0,-0.03119c-0.93799,-1.12091 -1.90455,-2.2196 -2.87494,-3.3125c-0.00501,-0.00598 0.005,-0.02533 0,-0.03119c-3.89832,-4.38897 -8.07123,-8.54931 -12.49988,-12.46875c-5.54303,-4.90576 -11.51178,-9.41119 -17.90607,-13.53125c-1.27887,-0.82403 -2.56146,-1.64624 -3.87494,-2.4375c-2.62689,-1.58252 -5.32727,-3.11377 -8.09369,-4.5625c-1.38318,-0.72442 -2.80035,-1.43475 -4.21869,-2.125c-2.83667,-1.38055 -5.74035,-2.6961 -8.71862,-3.9375c-1.4892,-0.62072 -3.00635,-1.19598 -4.53125,-1.78125c-4.57453,-1.75585 -9.28833,-3.35253 -14.18732,-4.78125c-1.633,-0.47625 -3.29932,-0.93597 -4.96869,-1.375c-6.67773,-1.7561 -13.63843,-3.23248 -20.90607,-4.375c-3.63379,-0.57128 -7.34137,-1.05627 -11.12487,-1.46875c-9.45856,-1.03259 -19.37067,-1.56384 -29.78077,-1.56384c-7.02044,0 -13.65234,-0.0741 -19.99975,0c-3.17383,0.03723 -6.25537,0.11011 -9.31244,0.25c-1.52844,0.06995 -3.0567,0.14392 -4.56244,0.25c-3.01154,0.2124 -5.99121,0.50696 -8.93738,0.90625c-5.15564,0.69849 -10.24359,1.74256 -15.34363,3.25c-1.45715,0.43079 -2.91266,0.89368 -4.37494,1.40625c-2.93267,1.02796 -5.8645,2.22547 -8.84362,3.625c-0.74268,0.34863 -1.47187,0.71985 -2.21875,1.09375l-109.93628,0.25l-12.15613,-31.31247c-0.35645,-0.83001 -0.84393,-1.58334 -1.46875,-2.28125c-0.01001,-0.0105 -0.0213,-0.0206 -0.03119,-0.03122c-1.24701,-1.38107 -2.95966,-2.51898 -4.78119,-3.3125c-0.61151,-0.26593 -1.24658,-0.49441 -1.875,-0.6875c-0.30493,-0.09329 -0.63287,-0.17437 -0.9375,-0.25c-0.31402,-0.07769 -0.62683,-0.16024 -0.93756,-0.21875c-0.93237,-0.1759 -1.83887,-0.25497 -2.68744,-0.25l0,-0.00009z" id="path3855" stroke-miterlimit="4" stroke-width="14" stroke="#191919" fill="#000000"/>
  <path d="m557.58777,7.00009c-1.50861,0.00901 -4.72107,0.30612 -6.46869,0.9375l-3.49994,1.5l8.65613,35.84378l-124.81116,0.28125c-77.96289,0.16535 -166.52252,-11.50372 -232.93497,-9.5c-66.41239,2.00367 -152.12335,28 -152.12335,28l-13.68734,3.78125c-19.25122,5.29627 -25.71848,97.36701 -25.71848,166.78125c0,1.11298 0.02665,2.25312 0.03125,3.375c-0.0046,1.12183 -0.03125,2.26197 -0.03125,3.375c0,69.41419 6.46726,161.48493 25.71848,166.78125l13.68734,3.78125c0,0 85.71096,25.99634 152.12335,28c66.41245,2.00367 154.97208,-9.6654 232.93497,-9.5l124.81116,0.28125l-8.65613,35.84375l3.49994,1.5c1.74762,0.63135 4.96008,0.92853 6.46869,0.9375c0.84857,0.00495 1.75507,-0.0744 2.68744,-0.25c0.31073,-0.05841 0.62353,-0.14123 0.9375,-0.21875c0.30462,-0.07544 0.63263,-0.15686 0.9375,-0.25c0.62848,-0.19268 1.26349,-0.42205 1.875,-0.6875c1.82153,-0.79205 3.53424,-1.90277 4.78119,-3.28125c0.01001,-0.01074 0.02173,-0.02081 0.03119,-0.03125c0.62481,-0.69653 1.1123,-1.45276 1.46875,-2.28125l12.15612,-31.25l109.93628,0.25c23.90039,11.94239 45.51123,10.71875 73.59296,10.71875c133.24884,0 187.62628,-86.5863 186.99811,-201.375c0,-0.78015 -0.01898,-1.56561 -0.03101,-2.34375c0.01203,-0.77807 0.03101,-1.56353 0.03101,-2.34375c0.62817,-114.78863 -53.74927,-201.375 -186.99811,-201.375c-28.08173,0 -49.69257,-1.22363 -73.59296,10.71875l-109.93628,0.25l-12.15612,-31.24997c-0.35645,-0.82846 -0.84394,-1.58468 -1.46875,-2.28125c-0.01001,-0.0104 -0.0213,-0.02059 -0.03119,-0.03121c-1.24695,-1.37848 -2.95966,-2.48923 -4.78119,-3.28125c-0.61151,-0.26545 -1.24652,-0.49482 -1.875,-0.6875c-0.30487,-0.09308 -0.63288,-0.1746 -0.9375,-0.25c-0.31397,-0.07758 -0.62677,-0.16034 -0.9375,-0.21875c-0.93237,-0.1756 -1.83887,-0.25498 -2.68744,-0.25l0,-0.0001z" id="path2853" fill="#ff7f00"/>
  <path d="m347.40289,368.54334c-33.36407,0 -65.30688,1.79998 -94.81144,5.0625c25.6602,48.71368 97.98503,30.26531 205.56028,31.53125c49.68634,0.58471 89.54309,1.87927 121.52991,2.375c-47.15967,-23.33417 -133.52667,-38.96875 -232.27875,-38.96875z" id="path3643" fill="#000000" opacity="0.9"/>
  <path d="m347.40289,368.54334c-3.20642,0 -6.38305,0.02947 -9.56238,0.0625c0.81827,16.17102 6.42804,30.25653 14.5936,38.84375c4.67142,-0.07563 9.49509,-0.19654 14.43735,-0.34375c-8.56568,-8.19233 -14.59262,-22.22803 -15.71857,-38.5625c-1.25128,-0.00501 -2.49469,0 -3.75,0z" id="path3658" fill="#000000" opacity="0.5"/>
  <path d="m936.08404,340.80689l-5.09368,0.59375c-21.54474,2.51269 -37.68824,25.97857 -39.28083,54.53125l-0.375,7.125l5.24994,-4.84375c15.88916,-14.68043 28.30316,-32.50739 37.40583,-52.75l2.09375,-4.65625l-0.00001,0z" id="path3707" stroke-miterlimit="4" stroke-width="5" stroke="#191919" fill-rule="nonzero" fill="#ffffff"/>
  <path d="m730.53742,351.80499c0,0 79.67724,-22.59643 105.37628,-31.98181c26.83941,-9.80182 98.85888,-39.14563 98.85888,-39.14563c0,0 -8.74096,42.46967 -30.48285,57.91809c-77.22326,54.86969 -232.68585,53.85364 -232.68585,53.85364" id="path3715" stroke-miterlimit="4" stroke-linejoin="round" stroke-linecap="round" stroke-width="6" stroke="#292929" fill="none" opacity="0.5"/>
  <path d="m817.03235,331.14477l-4.43744,2.34375c0.98914,1.1568 1.79547,2.42865 2.37494,3.84375c4.79791,11.71705 -10.73584,29.23597 -26.8747,35.78125c-0.51672,0.2096 -1.81286,0.84064 -3.40619,1.65625l13.62482,-3.875c17.30579,-8.45764 27.47046,-23.08197 22.99976,-34c-0.91614,-2.23736 -2.37518,-4.16607 -4.28119,-5.75z" id="path3757" fill="url(#linearGradient4149)"/>
  <path d="m825.61652,326.68372l-4.43744,2.34375c0.98913,1.15679 1.79547,2.42865 2.37494,3.84375c4.79791,11.71704 -10.73584,29.23596 -26.8747,35.78125c-0.51678,0.20959 -1.81286,0.84063 -3.40619,1.65625l13.62482,-3.875c17.30579,-8.45765 27.47046,-23.08197 22.99976,-34c-0.91614,-2.23737 -2.37519,-4.16608 -4.28119,-5.75z" id="path3787" fill="url(#linearGradient4203)"/>
  <path d="m831.80359,325.26947l-4.43744,2.34375c0.98914,1.1568 1.79547,2.42865 2.37494,3.84375c4.79791,11.71704 -10.73584,29.23596 -26.8747,35.78125c-0.51672,0.20959 -1.81286,0.84064 -3.40619,1.65625l13.62482,-3.875c17.30579,-8.45764 27.47046,-23.08197 22.99976,-34c-0.91614,-2.23737 -2.37518,-4.16608 -4.28119,-5.75z" id="path3752" fill="url(#linearGradient4155)"/>
  <path d="m848.71002,320.99622l-6.18744,1.84375c0.96015,1.71283 1.65448,3.53228 2.03125,5.46875c3.11939,16.03387 -20.96197,34.28357 -43.03082,38.5c-3.39496,0.64862 -28.88397,8.57598 -32.1579,8.80444l0,4.125l41.43903,-12.14819c26.2854,-5.49628 44.94885,-22.448 41.87457,-38.25c-0.59564,-3.06165 -1.95605,-5.85956 -3.96869,-8.34375z" id="path3735" fill="url(#linearGradient4205)"/>
  <path d="m848.71002,320.99622l-6.18744,1.84375c0.96015,1.71283 1.65448,3.53228 2.03125,5.46875c3.11939,16.03387 -20.96197,34.28357 -43.03082,38.5c-3.39496,0.64862 -28.88397,8.57598 -32.1579,8.80444l0,4.125l41.43903,-12.14819c26.2854,-5.49628 44.94885,-22.448 41.87457,-38.25c-0.59564,-3.06165 -1.95605,-5.85956 -3.96869,-8.34375z" id="path3783" fill="url(#linearGradient4207)"/>
  <path d="m804.18573,335.76422l-3.96411,2.09375c0.88367,1.03333 1.604,2.16956 2.12164,3.43366c4.28607,10.4671 -9.59057,26.11718 -24.00775,31.96423c-0.46167,0.18719 -1.61951,0.75098 -3.04285,1.47955l12.17139,-3.46161c15.4596,-7.55542 24.53998,-20.61963 20.54614,-30.37298c-0.81842,-1.99866 -2.12182,-3.72162 -3.82446,-5.1366z" id="path3799" fill="url(#linearGradient4209)"/>
  <path d="m790.37842,339.33752l-3.96405,2.09375c0.8836,1.03333 1.60394,2.16956 2.12158,3.43366c4.28607,10.4671 -9.59058,26.11712 -24.00775,31.96423c-0.46167,0.1872 -1.61951,0.75098 -3.04285,1.47955l12.17139,-3.46167c15.45959,-7.55535 24.53998,-20.61956 20.54614,-30.37292c-0.81842,-1.99866 -2.12176,-3.72162 -3.82446,-5.1366z" id="path3803" fill="url(#linearGradient4153)"/>
  <path d="m180.3286,359.0304c8.29303,-2.02338 15.48553,-1.47882 19.79747,5.78717l-2.49336,17.89672c-6.87511,6.17328 -13.75023,4.95093 -20.62535,0.15546l3.32124,-23.83935z" id="rect3861" fill="url(#linearGradient4211)"/>
  <path d="m200.6048,362.2937c8.15022,-1.2102 15.16667,-0.57281 18.84282,5.50812l-2.37311,17.03375c-6.48392,2.97479 -12.98291,5.20966 -19.63082,0.14795l3.16111,-22.68982z" id="path3864" fill="url(#linearGradient4213)"/>
  <path d="m347.40289,366.05689c-33.45395,0 -65.49206,1.78936 -95.09269,5.0625l-3.65622,0.40625l1.71872,3.25c6.67106,12.66442 16.5616,21.1134 29.06218,26.4375c12.50064,5.32409 27.57214,7.61261 45.09329,8.4375c35.04227,1.64978 79.95416,-2.63123 133.59231,-2c49.65863,0.58435 89.50788,1.87872 121.52991,2.375l1.125,-4.75c-47.84924,-23.67536 -134.35657,-39.21875 -233.3725,-39.21875zm0,5c91.1695,0 171.74732,13.47863 220.09137,33.71875c-29.95202,-0.5824 -65.21191,-1.60602 -109.31128,-2.125c-53.9371,-0.63471 -98.97586,3.65216 -133.40481,2.03125c-17.21451,-0.81049 -31.76685,-3.10541 -43.40579,-8.0625c-10.45319,-4.45209 -18.48529,-11.15436 -24.49976,-20.90625c28.30747,-2.98304 58.73471,-4.65625 90.53027,-4.65625z" id="path4025" stroke-width="5" fill-rule="nonzero" fill="#191919" opacity="0.9"/>
  <path d="m207.56029,120.68762l-77.74916,12.46875c-27.15041,4.35413 -48.94715,48.77277 -50.99945,104.84375c2.0523,56.07099 23.84904,100.48963 50.99945,104.84375l77.74916,12.46875c13.29587,0 23.99975,-10.70398 23.99975,-24l0,-186.625c0,-13.29602 -10.70388,-24 -23.99975,-24z" id="rect2864" stroke-miterlimit="4" stroke-width="5" stroke="#191919" fill="#000000" opacity="0.9"/>
  <path d="m639.02435,86.46887c-2.96917,0 -5.89325,0.33216 -8.78112,0.96875c-0.01044,-0.01001 -0.02082,-0.02099 -0.03125,-0.03119l-63.84308,12.3125c-17.72779,6.60468 -31.99964,14.27198 -31.99964,32l0,212.5625c0,17.72797 14.27185,25.39533 31.99964,32l63.84308,12.3125c0.01049,-0.01019 0.02075,-0.02112 0.03118,-0.03119c2.88788,0.6366 5.81196,0.96875 8.78113,0.96875c45.39551,0 82.19757,-57.36267 82.31159,-151.53125c-0.11408,-94.16864 -36.91614,-151.53125 -82.31159,-151.53125l0.00006,-0.00012z" id="path3703" stroke-dashoffset="0" stroke-miterlimit="4" stroke-width="5" stroke="#191919" fill="#000000" opacity="0.9"/>
  <path d="m347.40289,107.45673c-33.36407,0 -65.30688,-1.79999 -94.81144,-5.0625c25.6602,-48.71369 97.98503,-30.26532 205.56028,-31.53125c49.68634,-0.58472 89.54309,-1.87928 121.52991,-2.375c-47.15967,23.33416 -133.52667,38.96875 -232.27875,38.96875z" id="path4157" fill="#000000" opacity="0.9"/>
  <path d="m347.40289,107.45673c-3.20642,0 -6.38305,-0.02948 -9.56238,-0.0625c0.81827,-16.17102 6.42804,-30.25653 14.5936,-38.84375c4.67142,0.07562 9.49509,0.19653 14.43735,0.34375c-8.56568,8.19232 -14.59262,22.22802 -15.71857,38.5625c-1.25128,0.005 -2.49469,0 -3.75,0z" id="path4159" fill="#000000" opacity="0.5"/>
  <path d="m936.08404,136.19318l-5.09368,-0.59375c-21.54474,-2.5127 -37.68824,-25.97858 -39.28083,-54.53125l-0.375,-7.125l5.24994,4.84375c15.88916,14.68042 28.30316,32.50738 37.40583,52.75l2.09375,4.65625l-0.00001,0z" id="path4161" stroke-miterlimit="4" stroke-width="5" stroke="#191919" fill-rule="nonzero" fill="#ffffff"/>
  <path d="m730.53742,124.19507c0,0 79.67724,22.59643 105.37628,31.98181c26.83941,9.80182 98.85888,39.14563 98.85888,39.14563c0,0 -8.74096,-42.46967 -30.48285,-57.91809c-77.22326,-54.86969 -232.68585,-53.85358 -232.68585,-53.85358" id="path4163" stroke-miterlimit="4" stroke-linejoin="round" stroke-linecap="round" stroke-width="6" stroke="#292929" fill="none" opacity="0.5"/>
  <path d="m817.03235,144.85529l-4.43744,-2.34375c0.98914,-1.1568 1.79547,-2.42865 2.37494,-3.84375c4.79791,-11.71704 -10.73584,-29.23597 -26.8747,-35.78125c-0.51672,-0.2096 -1.81286,-0.84064 -3.40619,-1.65625l13.62482,3.875c17.30579,8.45764 27.47046,23.08197 22.99976,34c-0.91614,2.23736 -2.37518,4.16607 -4.28119,5.75z" id="path4165" fill="url(#linearGradient4185)"/>
  <path d="m825.61652,149.31641l-4.43744,-2.34375c0.98913,-1.1568 1.79547,-2.42865 2.37494,-3.84375c4.79791,-11.71704 -10.73584,-29.23597 -26.8747,-35.78125c-0.51678,-0.2096 -1.81286,-0.84064 -3.40619,-1.65625l13.62482,3.875c17.30579,8.45764 27.47046,23.08197 22.99976,34c-0.91614,2.23736 -2.37519,4.16607 -4.28119,5.75z" id="path4167" fill="url(#linearGradient4187)"/>
  <path d="m831.80359,150.73059l-4.43744,-2.34375c0.98914,-1.1568 1.79547,-2.42865 2.37494,-3.84375c4.79791,-11.71704 -10.73584,-29.23596 -26.8747,-35.78125c-0.51672,-0.20959 -1.81286,-0.84064 -3.40619,-1.65625l13.62482,3.875c17.30579,8.45764 27.47046,23.08197 22.99976,34c-0.91614,2.23737 -2.37518,4.16608 -4.28119,5.75z" id="path4169" fill="url(#linearGradient4189)"/>
  <path d="m848.71002,155.00391l-6.18744,-1.84375c0.96015,-1.71283 1.65448,-3.53229 2.03125,-5.46875c3.11939,-16.03388 -20.96197,-34.28357 -43.03082,-38.5c-3.39496,-0.64863 -28.88397,-8.57599 -32.1579,-8.80445l0,-4.125l41.43903,12.1482c26.2854,5.49627 44.94885,22.44799 41.87457,38.25c-0.59564,3.06164 -1.95605,5.85955 -3.96869,8.34375z" id="path4171" fill="url(#linearGradient4191)"/>
  <path d="m848.71002,155.00391l-6.18744,-1.84375c0.96015,-1.71283 1.65448,-3.53229 2.03125,-5.46875c3.11939,-16.03388 -20.96197,-34.28357 -43.03082,-38.5c-3.39496,-0.64863 -28.88397,-8.57599 -32.1579,-8.80445l0,-4.125l41.43903,12.1482c26.2854,5.49627 44.94885,22.44799 41.87457,38.25c-0.59564,3.06164 -1.95605,5.85955 -3.96869,8.34375z" id="path4173" fill="url(#linearGradient4193)"/>
  <path d="m804.18573,140.23584l-3.96411,-2.09369c0.88367,-1.03339 1.604,-2.16956 2.12164,-3.43372c4.28607,-10.4671 -9.59057,-26.11718 -24.00775,-31.96417c-0.46167,-0.18725 -1.61951,-0.75104 -3.04285,-1.47961l12.17139,3.46161c15.4596,7.55542 24.53998,20.61963 20.54614,30.37298c-0.81842,1.99866 -2.12182,3.72162 -3.82446,5.1366z" id="path4175" fill="url(#linearGradient4195)"/>
  <path d="m790.37842,136.66254l-3.96405,-2.09375c0.8836,-1.03333 1.60394,-2.16956 2.12158,-3.43366c4.28607,-10.4671 -9.59058,-26.11719 -24.00775,-31.96423c-0.46167,-0.1872 -1.61951,-0.75098 -3.04285,-1.47955l12.17139,3.46167c15.45959,7.55535 24.53998,20.61956 20.54614,30.37292c-0.81842,1.99866 -2.12176,3.72162 -3.82446,5.1366z" id="path4177" fill="url(#linearGradient4197)"/>
  <path d="m180.3286,116.96967c8.29303,2.02337 15.48553,1.47882 19.79747,-5.78717l-2.49336,-17.89673c-6.87511,-6.17328 -13.75023,-4.95093 -20.62535,-0.15546l3.32124,23.83935l0,0.00001z" id="path4179" fill="url(#linearGradient4199)"/>
  <path d="m200.6048,113.70642c8.15022,1.21021 15.16667,0.57282 18.84282,-5.50812l-2.37311,-17.03375c-6.48392,-2.97479 -12.98291,-5.20965 -19.63082,-0.14795l3.16111,22.68982z" id="path4181" fill="url(#linearGradient4201)"/>
  <path d="m347.40289,109.94318c-33.45395,0 -65.49206,-1.78937 -95.09269,-5.0625l-3.65622,-0.40625l1.71872,-3.25c6.67106,-12.66443 16.5616,-21.11341 29.06218,-26.4375c12.50064,-5.3241 27.57214,-7.61261 45.09329,-8.4375c35.04227,-1.64978 79.95416,2.63122 133.59231,2c49.65863,-0.58442 89.50788,-1.87873 121.52991,-2.375l1.125,4.75c-47.84924,23.67535 -134.35657,39.21875 -233.3725,39.21875zm0,-5c91.1695,0 171.74732,-13.47864 220.09137,-33.71875c-29.95202,0.58239 -65.21191,1.60601 -109.31128,2.125c-53.9371,0.6347 -98.97586,-3.65217 -133.40481,-2.03125c-17.21451,0.81048 -31.76685,3.1054 -43.40579,8.0625c-10.45319,4.45208 -18.48529,11.15435 -24.49976,20.90625c28.30747,2.98303 58.73471,4.65625 90.53027,4.65625z" id="path4183" stroke-width="5" fill-rule="nonzero" fill="#191919" opacity="0.9"/>
 </g>
</svg>